<svg width="1039" height="1120" viewBox="0 0 1039 1120" fill="none" xmlns="http://www.w3.org/2000/svg">
<path opacity="0.5" d="M318.931 44.798C198.993 145.32 180.406 335.401 99.1766 475.631C70.8998 524.426 34.3623 568.095 15.2993 622.227C-28.4662 746.13 31.7676 886.676 112.388 985.085C150.832 1032.03 195.736 1075.04 250.066 1094.83C291.845 1110.04 336.644 1110.68 380.621 1111.07L1151.08 1119C1237.11 1119.87 1332.69 1116.73 1394.54 1050.31C1437.16 1004.58 1454.48 937.796 1469.17 874.048C1487.23 795.717 1503.59 710.649 1475.5 636.044C1443.41 550.686 1362.26 502.313 1311.85 428.659C1230.04 309.326 1231.92 128.835 1127.73 33.5701C1079.1 -10.8922 1014.92 -28.3284 952.379 -37.0465C834.479 -53.5052 722.802 -22.437 607.021 -26.7697C508.052 -30.4683 401.034 -24.0221 318.931 44.798Z" fill="#E7ECFF" stroke="black"/>
</svg>
